HIERARCHY
ROOT Hips
{
	OFFSET -0.001795 -0.223333 0.028219
	CHANNELS 6 Xposition Yposition Zposition Zrotation Yrotation Xrotation 
	JOINT LeftUpLeg
	{
		OFFSET 0.069520 -0.091406 -0.006815
		CHANNELS 3 Zrotation Yrotation Xrotation
		JOINT LeftLeg
		{
			OFFSET 0.034277 -0.375199 -0.004496
			CHANNELS 3 Zrotation Yrotation Xrotation
			JOINT LeftFoot
			{
				OFFSET -0.013596 -0.397961 -0.043693
				CHANNELS 3 Zrotation Yrotation Xrotation
				JOINT LeftToe
				{
					OFFSET 0.026358 -0.055791 0.119288
					CHANNELS 3 Zrotation Yrotation Xrotation
					End Site
					{
						OFFSET 0.000000 0.000000 0.000000
					}
				}
			}
		}
	}
	JOINT RightUpLeg
	{
		OFFSET -0.067670 -0.090522 -0.004320
		CHANNELS 3 Zrotation Yrotation Xrotation
		JOINT RightLeg
		{
			OFFSET -0.038290 -0.382569 -0.008850
			CHANNELS 3 Zrotation Yrotation Xrotation
			JOINT RightFoot
			{
				OFFSET 0.015774 -0.398415 -0.042312
				CHANNELS 3 Zrotation Yrotation Xrotation
				JOINT RightToe
				{
					OFFSET -0.025372 -0.048144 0.123348
					CHANNELS 3 Zrotation Yrotation Xrotation
					End Site
					{
						OFFSET 0.000000 0.000000 0.000000
					}
				}
			}
		}
	}
	JOINT Spine
	{
		OFFSET -0.002533 0.108963 -0.026696
		CHANNELS 3 Zrotation Yrotation Xrotation
		JOINT Spine1
		{
			OFFSET 0.005487 0.135180 0.001092
			CHANNELS 3 Zrotation Yrotation Xrotation
			JOINT Spine2
			{
				OFFSET 0.001457 0.052922 0.025425
				CHANNELS 3 Zrotation Yrotation Xrotation
				JOINT Neck
				{
					OFFSET -0.002778 0.213870 -0.042857
					CHANNELS 3 Zrotation Yrotation Xrotation
					JOINT Head
					{
						OFFSET 0.005152 0.064970 0.051349
						CHANNELS 3 Zrotation Yrotation Xrotation
						End Site
						{
							OFFSET 0.000000 0.000000 0.000000
						}
					}
				}
				JOINT LeftShoulder
				{
					OFFSET 0.078845 0.121749 -0.034090
					CHANNELS 3 Zrotation Yrotation Xrotation
					JOINT LeftArm
					{
						OFFSET 0.090977 0.030469 -0.008868
						CHANNELS 3 Zrotation Yrotation Xrotation
						JOINT LeftForeArm
						{
							OFFSET 0.259612 -0.012772 -0.027456
							CHANNELS 3 Zrotation Yrotation Xrotation
							JOINT LeftHand
							{
								OFFSET 0.249234 0.008986 -0.001171
								CHANNELS 3 Zrotation Yrotation Xrotation
								End Site
								{
									OFFSET 0.000000 0.000000 0.000000
								}
							}
						}
					}
				}
				JOINT RightShoulder
				{
					OFFSET -0.081759 0.118833 -0.038615
					CHANNELS 3 Zrotation Yrotation Xrotation
					JOINT RightArm
					{
						OFFSET -0.096012 0.032551 -0.009143
						CHANNELS 3 Zrotation Yrotation Xrotation
						JOINT RightForeArm
						{
							OFFSET -0.253742 -0.013329 -0.021401
							CHANNELS 3 Zrotation Yrotation Xrotation
							JOINT RightHand
							{
								OFFSET -0.255298 0.007772 -0.005559
								CHANNELS 3 Zrotation Yrotation Xrotation
								End Site
								{
									OFFSET 0.000000 0.000000 0.000000
								}
							}
						}
					}
				}
			}
		}
	}
}
MOTION
Frames: 17
Frame Time: 0.050000
0.000000 0.914542 0.000000 -2.333098 -24.901946 2.881877 5.306125 0.136611 -18.467789 2.896558 0.057136 24.402287 -1.498751 -4.373874 -5.472049 0.000000 0.000000 0.000000 -0.925501 0.701201 -7.315245 8.288645 0.162432 20.758752 -11.500985 -23.422288 -6.315227 0.000000 0.000000 0.000000 -0.220872 -0.181400 7.965808 -10.986683 5.361454 -1.048610 -3.184667 18.020263 3.523101 12.205984 -7.091741 -10.376568 0.000000 0.000000 0.000000 1.084698 -34.861749 11.554814 5.435282 -53.296895 -6.319963 80.519192 -27.914442 -23.003127 0.000000 0.000000 0.000000 -13.312517 37.600839 9.674279 -36.334269 56.712520 -19.892970 -70.572046 -4.754566 5.339180 0.000000 0.000000 0.000000 
0.007708 0.914750 -0.000794 -2.952982 -26.386155 2.712460 5.114103 0.186094 -18.570815 4.147536 -0.239194 24.847815 -2.135685 -5.307810 -4.076820 0.000000 0.000000 0.000000 -1.464609 0.794848 -8.139912 8.264330 0.365991 22.108846 -10.961480 -22.650095 -3.782770 0.000000 0.000000 0.000000 0.348969 -0.227702 7.559006 -11.025219 5.766201 0.873403 -4.234256 19.502205 3.084686 14.146732 -8.135499 -11.282854 0.000000 0.000000 0.000000 4.878835 -34.314636 10.545063 8.532449 -56.359336 -8.653326 83.582789 -23.726946 -21.065483 0.000000 0.000000 0.000000 -14.707655 38.250065 9.356243 -37.400707 55.991440 -19.671045 -74.638692 -14.355527 12.698375 0.000000 0.000000 0.000000 
0.016320 0.915123 -0.001501 -3.312623 -27.139175 1.788121 5.045480 0.159208 -17.219671 4.376230 -0.270436 24.668297 -1.688145 -4.072541 -3.337763 0.000000 0.000000 0.000000 -1.039997 0.739299 -7.675944 7.100129 0.573795 21.205683 -11.461141 -24.027841 -1.037454 0.000000 0.000000 0.000000 1.297273 -0.313269 9.716414 -11.178964 5.498497 -1.088741 -4.358419 20.097743 4.316887 15.130424 -9.424961 -9.610212 0.000000 0.000000 0.000000 3.598900 -34.989196 10.958687 9.106935 -54.595081 -8.505470 85.556658 -25.356297 -23.317343 0.000000 0.000000 0.000000 -18.206671 36.729068 7.631131 -35.609669 57.253573 -19.204952 -75.591975 -14.404371 12.956480 0.000000 0.000000 0.000000 
0.025445 0.917932 -0.002169 -3.359050 -29.007526 1.999675 5.532846 0.358701 -17.301094 3.011002 0.406277 24.848024 -2.217260 -4.960295 -2.632785 0.000000 0.000000 0.000000 -1.208048 0.881715 -8.949875 7.238602 0.749862 22.098581 -12.818922 -26.734365 0.922037 0.000000 0.000000 0.000000 0.733116 -0.246272 9.084721 -10.978634 5.531412 -0.411470 -3.819166 20.655772 4.637779 15.699839 -9.767282 -9.962958 0.000000 0.000000 0.000000 4.070325 -35.694016 11.119669 8.796909 -53.907100 -8.146780 87.477573 -25.017165 -23.654948 0.000000 0.000000 0.000000 -18.716384 37.669799 7.673025 -39.303408 56.759182 -20.986936 -72.311117 -16.244645 13.304189 0.000000 0.000000 0.000000 
0.034998 0.919377 -0.002608 -3.566714 -29.624759 2.567871 5.061629 0.310311 -17.972075 2.400571 0.717726 25.069651 -1.733416 -3.821395 -2.227136 0.000000 0.000000 0.000000 -1.856026 0.986056 -9.827699 7.831022 0.625172 21.630213 -12.483140 -26.250354 1.578029 0.000000 0.000000 0.000000 1.312815 -0.297469 9.075384 -11.023376 5.686022 0.220472 -4.370640 20.473053 3.686596 16.050213 -10.288354 -9.053949 0.000000 0.000000 0.000000 2.473452 -35.423679 11.387422 4.242430 -53.436599 -5.961254 89.987047 -27.156418 -26.664735 0.000000 0.000000 0.000000 -17.740948 36.841109 7.879039 -37.196500 59.062963 -21.163034 -73.233601 -13.564700 11.716534 0.000000 0.000000 0.000000 
0.044709 0.920496 -0.003107 -3.799946 -30.113633 2.821434 4.668317 0.273599 -18.608320 2.366662 0.810668 25.469636 -1.559653 -3.409812 -2.031231 0.000000 0.000000 0.000000 -2.790521 1.028286 -10.166500 8.776799 0.438196 21.333454 -12.495760 -26.318525 1.830139 0.000000 0.000000 0.000000 1.364510 -0.298878 9.364872 -10.109954 5.152934 0.054798 -4.363531 20.425755 3.532586 16.382484 -10.164660 -10.234580 0.000000 0.000000 0.000000 0.941807 -35.402696 11.727089 0.358287 -52.398789 -4.086903 90.718947 -30.364701 -30.001711 0.000000 0.000000 0.000000 -16.762924 37.000227 8.246582 -36.066115 59.382220 -20.855669 -70.267544 -10.851981 9.256759 0.000000 0.000000 0.000000 
0.054280 0.921560 -0.003382 -3.786927 -30.727300 3.086506 4.090391 0.177182 -18.776000 2.182060 0.881155 24.950708 -1.252696 -2.688667 -1.749077 0.000000 0.000000 0.000000 -3.679679 1.103520 -10.759238 9.243823 0.357956 20.913475 -12.150107 -25.783700 2.266166 0.000000 0.000000 0.000000 1.958437 -0.351090 9.375693 -9.944131 5.086721 0.148814 -4.240961 20.033531 3.734712 16.444341 -9.840117 -11.581841 0.000000 0.000000 0.000000 -0.259557 -35.006867 11.906082 -2.829711 -51.695586 -2.611052 91.926215 -32.311631 -32.302059 0.000000 0.000000 0.000000 -15.915250 36.271357 8.330574 -35.587302 61.679202 -21.990892 -69.948242 -8.115749 7.319378 0.000000 0.000000 0.000000 
0.063569 0.922303 -0.003496 -3.636500 -31.717884 3.275977 3.731943 0.158623 -19.101964 1.855637 1.128143 25.196149 -0.594093 -1.232267 -1.341574 0.000000 0.000000 0.000000 -4.593118 1.200989 -11.524801 9.335318 0.395522 20.839939 -11.689005 -24.992182 2.435498 0.000000 0.000000 0.000000 2.588131 -0.400854 9.372272 -9.840595 5.080506 0.348987 -4.224951 19.657928 3.791379 15.974978 -9.464355 -11.919332 0.000000 0.000000 0.000000 -1.788383 -35.087489 12.359173 -3.702711 -51.136236 -2.104961 90.398654 -33.482681 -32.349719 0.000000 0.000000 0.000000 -15.426561 35.159989 8.209516 -34.078204 62.640931 -21.861640 -67.472342 -5.552787 5.308531 0.000000 0.000000 0.000000 
0.072462 0.922361 -0.003430 -3.152525 -33.158695 2.985508 3.080144 0.036026 -18.386620 1.210019 1.311312 23.671298 0.165920 0.430204 -1.125551 0.000000 0.000000 0.000000 -5.393290 1.261863 -11.895414 8.763368 0.572841 20.727871 -11.613469 -24.742616 2.573057 0.000000 0.000000 0.000000 3.067916 -0.427312 9.372386 -9.925307 5.276447 0.970518 -4.286534 18.941385 3.777686 14.952167 -8.900546 -11.694344 0.000000 0.000000 0.000000 -1.745573 -35.143270 12.516108 -3.487422 -51.072764 -2.050266 87.097333 -33.089347 -29.922115 0.000000 0.000000 0.000000 -15.504495 34.906270 8.132404 -31.066527 62.183928 -20.272158 -64.334189 -3.421001 3.652568 0.000000 0.000000 0.000000 
0.080795 0.922298 -0.003447 -2.821098 -34.845343 2.223092 2.757426 -0.002999 -17.523613 0.289892 1.789208 23.401956 1.021289 2.284877 -0.793656 0.000000 0.000000 0.000000 -5.762252 1.310483 -12.189947 7.652198 0.923464 21.275679 -10.840252 -23.232845 2.542563 0.000000 0.000000 0.000000 3.745021 -0.463454 10.097647 -9.953745 5.326542 0.989734 -4.334147 17.761317 4.352222 13.654393 -8.449252 -10.587490 0.000000 0.000000 0.000000 -1.470651 -35.677973 12.869909 -3.078203 -50.816466 -2.015456 82.926641 -32.082960 -26.578579 0.000000 0.000000 0.000000 -15.170795 34.964168 8.201275 -28.376730 61.486941 -19.033258 -60.702645 -0.058557 1.392755 0.000000 0.000000 0.000000 
0.088717 0.922200 -0.003947 -2.617394 -36.933657 2.111939 2.178358 -0.072675 -16.996678 0.094764 1.977887 22.880488 1.984019 4.365289 -0.848786 0.000000 0.000000 0.000000 -6.017865 1.404214 -12.792490 7.122980 1.180840 21.601688 -10.311018 -22.118381 2.422195 0.000000 0.000000 0.000000 4.239203 -0.480120 10.338472 -9.604520 5.210412 1.220693 -4.623318 16.756518 4.747373 12.961907 -8.224285 -10.123805 0.000000 0.000000 0.000000 -1.072131 -36.206931 13.186187 -1.915746 -51.357598 -2.309197 77.511729 -29.977348 -22.162743 0.000000 0.000000 0.000000 -14.989595 34.791503 8.213543 -25.325025 60.975789 -17.705756 -57.394487 3.169712 -0.487049 0.000000 0.000000 0.000000 
0.095757 0.922128 -0.005267 -2.480827 -39.576850 2.127429 1.994728 0.022425 -17.298136 -0.358984 2.574857 23.734921 2.727912 6.045536 -1.339442 0.000000 0.000000 0.000000 -5.630699 1.532372 -13.660446 5.641497 1.729749 22.398645 -9.579280 -20.292985 1.522540 0.000000 0.000000 0.000000 4.812979 -0.496259 10.541776 -9.663640 5.232114 0.996487 -4.548531 15.476156 5.234799 11.829297 -7.758701 -9.477608 0.000000 0.000000 0.000000 -1.292871 -36.606795 13.722171 -1.059704 -52.234118 -2.438204 73.501367 -28.118238 -18.832900 0.000000 0.000000 0.000000 -13.462322 35.499475 8.756783 -23.640873 60.536771 -17.388605 -53.802871 7.386771 -2.619547 0.000000 0.000000 0.000000 
0.101397 0.922486 -0.007014 -2.186050 -41.926454 2.329692 1.555889 0.031701 -17.407311 -0.446071 2.799482 23.476726 3.942715 8.538365 -0.485968 0.000000 0.000000 0.000000 -5.654321 1.725720 -14.882817 4.924849 2.049955 22.665250 -9.122588 -19.355034 1.561730 0.000000 0.000000 0.000000 5.102314 -0.493215 10.618866 -9.261175 5.077259 1.168627 -4.758840 14.200430 5.387588 10.561982 -7.139233 -8.859371 0.000000 0.000000 0.000000 -2.302867 -37.422118 14.716139 0.188979 -52.509887 -2.754865 70.317970 -24.772852 -15.202956 0.000000 0.000000 0.000000 -12.008258 35.879098 9.197772 -20.243748 60.616378 -16.225232 -51.163355 11.777757 -4.569026 0.000000 0.000000 0.000000 
0.104943 0.922398 -0.008901 -2.206821 -44.244252 2.880641 1.461735 0.141587 -17.679582 -0.799711 3.273893 23.822121 5.005642 10.842493 -0.558556 0.000000 0.000000 0.000000 -5.019471 1.926840 -16.023985 3.910223 2.408383 22.786432 -8.478797 -17.875958 1.197059 0.000000 0.000000 0.000000 5.621014 -0.506863 10.603043 -8.967273 4.862364 0.826880 -4.675145 12.681366 5.845068 8.611435 -6.054396 -8.186871 0.000000 0.000000 0.000000 -3.794724 -37.259281 15.636238 1.032679 -53.438695 -2.970574 68.827232 -22.740938 -13.126705 0.000000 0.000000 0.000000 -10.395457 36.697490 9.712728 -17.438190 60.503717 -15.404321 -48.950419 15.648056 -6.174864 0.000000 0.000000 0.000000 
0.106268 0.922276 -0.010702 -2.295660 -46.892871 2.919177 1.593340 0.259239 -17.125558 -1.372947 3.813489 23.738982 5.809566 12.585996 -0.377570 0.000000 0.000000 0.000000 -4.824113 2.053494 -16.560503 3.813995 2.571680 22.772957 -8.295655 -17.380168 1.362028 0.000000 0.000000 0.000000 5.815659 -0.481572 11.178156 -8.550529 4.714382 1.010029 -4.657153 11.529002 5.527470 7.821098 -5.664964 -7.766901 0.000000 0.000000 0.000000 -5.951607 -37.623808 17.071494 1.580440 -52.714274 -3.079016 68.131706 -21.186733 -11.796317 0.000000 0.000000 0.000000 -8.829923 37.286384 10.115099 -12.992144 60.464390 -13.479537 -47.164058 19.746970 -7.809481 0.000000 0.000000 0.000000 
0.105470 0.921970 -0.012644 -2.268951 -49.553611 2.943319 2.151364 0.504239 -16.756746 -2.529487 4.669824 23.766312 6.765250 14.520028 0.053318 0.000000 0.000000 0.000000 -4.226565 2.124399 -16.753012 3.022630 2.871594 22.792705 -7.498913 -15.498118 1.116734 0.000000 0.000000 0.000000 5.700393 -0.426612 11.706349 -8.333414 4.371078 0.011409 -4.487736 11.352771 6.083955 7.114312 -5.286694 -7.980463 0.000000 0.000000 0.000000 -7.377497 -37.558266 18.011721 1.115043 -52.507556 -2.880262 68.423909 -19.665401 -10.721664 0.000000 0.000000 0.000000 -7.094396 37.514990 10.372891 -9.260115 59.769052 -11.630112 -46.256438 23.263643 -9.326404 0.000000 0.000000 0.000000 
0.103361 0.921779 -0.014600 -2.460414 -52.011105 3.120247 2.598776 0.693854 -16.246473 -3.229018 5.345224 23.842961 7.610511 16.449355 0.001847 0.000000 0.000000 0.000000 -4.125772 2.132409 -16.620731 2.894782 2.853992 22.092914 -7.198903 -14.539717 1.032363 0.000000 0.000000 0.000000 6.171682 -0.419443 11.755461 -8.610429 4.514132 -0.138216 -4.353984 10.608884 6.263715 6.873919 -5.196772 -8.584893 0.000000 0.000000 0.000000 -9.084423 -37.388984 19.118967 0.345485 -51.705785 -2.566810 69.668527 -19.461009 -10.676539 0.000000 0.000000 0.000000 -5.785825 37.807427 10.532573 -6.344374 58.667692 -10.160267 -44.973448 25.914350 -10.379573 0.000000 0.000000 0.000000 
